<mxfile host="Electron" agent="Mozilla/5.0 (X11; Linux x86_64) AppleWebKit/537.36 (KHTML, like Gecko) draw.io/24.7.8 Chrome/128.0.6613.36 Electron/32.0.1 Safari/537.36" version="24.7.8">
  <diagram name="Страница — 1" id="Zvr2eW7H0rXLNG6UFAMz">
    <mxGraphModel dx="326" dy="205" grid="1" gridSize="10" guides="1" tooltips="1" connect="1" arrows="1" fold="1" page="1" pageScale="1" pageWidth="827" pageHeight="1169" math="0" shadow="0">
      <root>
        <mxCell id="0" />
        <mxCell id="1" parent="0" />
        <UserObject label="&lt;div style=&quot;font-size: 13px;&quot;&gt;&lt;span style=&quot;background-color: initial; font-size: 13px;&quot;&gt;&lt;font style=&quot;font-size: 13px;&quot; color=&quot;#990488&quot;&gt;SELECT&lt;/font&gt;&amp;nbsp;&lt;font style=&quot;font-size: 13px;&quot; color=&quot;#425dc0&quot;&gt;*&lt;/font&gt;&lt;font style=&quot;font-size: 13px;&quot; color=&quot;#990488&quot;&gt;&amp;nbsp;FROM&lt;/font&gt;&lt;/span&gt;&lt;/div&gt;&lt;div style=&quot;font-size: 13px;&quot;&gt;&lt;span style=&quot;background-color: initial; font-size: 13px;&quot;&gt;&lt;font style=&quot;font-size: 13px;&quot; color=&quot;#425dc0&quot;&gt;&lt;br style=&quot;font-size: 13px;&quot;&gt;&lt;/font&gt;&lt;/span&gt;&lt;/div&gt;&lt;div style=&quot;font-size: 13px;&quot;&gt;&lt;span style=&quot;background-color: initial; font-size: 13px;&quot;&gt;&lt;font style=&quot;font-size: 13px;&quot; color=&quot;#425dc0&quot;&gt;tbl1 t1&lt;/font&gt;&lt;font style=&quot;font-size: 13px;&quot; color=&quot;#990488&quot;&gt;&amp;nbsp;&lt;/font&gt;&lt;/span&gt;&lt;span style=&quot;background-color: initial; color: rgb(153, 4, 136);&quot;&gt;JOIN&amp;nbsp;&lt;/span&gt;&lt;span style=&quot;background-color: initial; color: rgb(66, 93, 192);&quot;&gt;tbl2 t2&amp;nbsp;&lt;/span&gt;&lt;/div&gt;&lt;div style=&quot;font-size: 13px;&quot;&gt;&lt;span style=&quot;background-color: initial; font-size: 13px;&quot;&gt;&lt;font color=&quot;#990488&quot;&gt;&lt;br&gt;&lt;/font&gt;&lt;/span&gt;&lt;/div&gt;&lt;div style=&quot;font-size: 13px;&quot;&gt;&lt;span style=&quot;background-color: initial; font-size: 13px;&quot;&gt;&lt;font color=&quot;#990488&quot;&gt;&amp;nbsp; &amp;nbsp;ON&lt;/font&gt;&lt;/span&gt;&lt;span style=&quot;background-color: initial; font-size: 13px; color: rgb(66, 93, 192);&quot;&gt;&amp;nbsp;&amp;nbsp;&lt;/span&gt;&lt;span style=&quot;color: rgb(66, 93, 192); background-color: initial;&quot;&gt;t1&lt;/span&gt;&lt;span style=&quot;color: rgb(51, 51, 51); background-color: initial;&quot;&gt;.&lt;/span&gt;&lt;font style=&quot;background-color: initial;&quot; color=&quot;#425dc0&quot;&gt;id&amp;nbsp;&lt;/font&gt;&lt;font style=&quot;background-color: initial; color: rgb(51, 51, 51);&quot; color=&quot;#333333&quot;&gt;=&amp;nbsp;&lt;/font&gt;&lt;span style=&quot;background-color: initial; color: rgb(66, 93, 192);&quot;&gt;t2&lt;/span&gt;&lt;span style=&quot;background-color: initial; color: rgb(51, 51, 51);&quot;&gt;.&lt;/span&gt;&lt;font style=&quot;background-color: initial;&quot; color=&quot;#425dc0&quot;&gt;id&lt;/font&gt;&lt;/div&gt;&lt;div style=&quot;font-size: 13px;&quot;&gt;&lt;br&gt;&lt;/div&gt;&lt;div style=&quot;color: rgb(51, 51, 51); font-size: 13px;&quot;&gt;&lt;span style=&quot;color: rgb(153, 4, 136);&quot;&gt;WHERE&amp;nbsp;&lt;/span&gt;&lt;/div&gt;&lt;div style=&quot;color: rgb(51, 51, 51); font-size: 13px;&quot;&gt;&lt;span style=&quot;background-color: initial; color: rgb(66, 93, 192);&quot;&gt;&amp;nbsp; &amp;nbsp; &amp;nbsp; &amp;nbsp;t1&lt;/span&gt;&lt;span style=&quot;background-color: initial;&quot;&gt;.&lt;/span&gt;&lt;font style=&quot;background-color: initial;&quot; color=&quot;#425dc0&quot;&gt;value&amp;nbsp;&lt;/font&gt;&lt;font style=&quot;background-color: initial;&quot; color=&quot;#333333&quot;&gt;=&amp;nbsp;&lt;/font&gt;&lt;span style=&quot;background-color: initial; color: rgb(66, 93, 192);&quot;&gt;t2&lt;/span&gt;&lt;span style=&quot;background-color: initial;&quot;&gt;.&lt;/span&gt;&lt;font style=&quot;background-color: initial;&quot; color=&quot;#425dc0&quot;&gt;value&lt;/font&gt;&lt;/div&gt;&lt;div style=&quot;font-size: 13px;&quot;&gt;&lt;span style=&quot;color: rgb(153, 4, 136); background-color: initial;&quot;&gt;&amp;nbsp; AND&lt;/span&gt;&lt;span style=&quot;color: rgb(66, 93, 192); background-color: initial;&quot;&gt;&amp;nbsp;&lt;/span&gt;&lt;/div&gt;&lt;div style=&quot;font-size: 13px;&quot;&gt;&lt;span style=&quot;color: rgb(66, 93, 192); background-color: initial;&quot;&gt;&amp;nbsp; &amp;nbsp; &amp;nbsp; &amp;nbsp;t1&lt;/span&gt;&lt;span style=&quot;color: rgb(51, 51, 51); background-color: initial;&quot;&gt;.&lt;/span&gt;&lt;span style=&quot;color: rgb(66, 93, 192);&quot;&gt;value&lt;/span&gt;&lt;font style=&quot;color: rgb(51, 51, 51); background-color: initial;&quot; color=&quot;#425dc0&quot;&gt;&amp;nbsp;&lt;/font&gt;&lt;font style=&quot;color: rgb(51, 51, 51); background-color: initial;&quot; color=&quot;#333333&quot;&gt;= &lt;/font&gt;&lt;font color=&quot;#b36844&quot; style=&quot;background-color: initial;&quot;&gt;0&lt;/font&gt;&lt;span style=&quot;color: rgb(66, 93, 192); background-color: initial;&quot;&gt;&amp;nbsp;&amp;nbsp;&lt;/span&gt;&lt;/div&gt;&lt;div style=&quot;color: rgb(51, 51, 51); font-size: 13px;&quot;&gt;&lt;br&gt;&lt;/div&gt;" link="explain select t1.value, max(t1.id) from tbl t1&#xa;join&#xa;(select id from tbl where value = 1 or value = 2) t2&#xa;using (id)&#xa;group by t1.value&#xa;having count(t1.id) &gt; 100;" id="W669uPvKT1c0R3ufBaIu-1">
          <mxCell style="text;html=1;align=left;verticalAlign=middle;whiteSpace=wrap;rounded=0;fontFamily=Courier New;shadow=0;horizontal=1;spacing=2;fontSize=13;" parent="1" vertex="1">
            <mxGeometry x="249" y="141" width="391" height="209" as="geometry" />
          </mxCell>
        </UserObject>
        <mxCell id="gRIM112ALjNljpeR_7gf-1" value="" style="rounded=1;whiteSpace=wrap;html=1;fillColor=none;align=left;verticalAlign=top;arcSize=13;strokeColor=#3D3D3D;fontColor=#313131;" parent="1" vertex="1">
          <mxGeometry x="300" y="215" width="140" height="27" as="geometry" />
        </mxCell>
        <mxCell id="0qRZTW3p_MMmJuaFhNqh-1" value="" style="rounded=1;whiteSpace=wrap;html=1;fillColor=none;align=left;verticalAlign=top;arcSize=13;strokeColor=#3D3D3D;fontColor=#313131;" parent="1" vertex="1">
          <mxGeometry x="300" y="263" width="180" height="27" as="geometry" />
        </mxCell>
        <mxCell id="0qRZTW3p_MMmJuaFhNqh-2" value="" style="rounded=1;whiteSpace=wrap;html=1;fillColor=none;align=left;verticalAlign=top;arcSize=13;strokeColor=#3D3D3D;fontColor=#313131;" parent="1" vertex="1">
          <mxGeometry x="300" y="293" width="180" height="27" as="geometry" />
        </mxCell>
        <mxCell id="0qRZTW3p_MMmJuaFhNqh-6" value="RestrictInfo" style="text;html=1;align=center;verticalAlign=middle;whiteSpace=wrap;rounded=0;fontSize=14;fontStyle=1;fontColor=#313131;" parent="1" vertex="1">
          <mxGeometry x="343" y="350" width="94" height="20" as="geometry" />
        </mxCell>
        <mxCell id="0qRZTW3p_MMmJuaFhNqh-7" value="" style="shape=curlyBracket;whiteSpace=wrap;html=1;rounded=1;labelPosition=left;verticalLabelPosition=middle;align=right;verticalAlign=middle;" parent="1" vertex="1">
          <mxGeometry x="561.88" y="183" width="20" height="64" as="geometry" />
        </mxCell>
        <mxCell id="Gkvv0AvtTm0t5nRtkiNN-1" value="&lt;span style=&quot;forced-color-adjust: none; font-family: &amp;quot;Courier New&amp;quot;; font-size: 13px; font-style: normal; font-variant-ligatures: normal; font-variant-caps: normal; font-weight: 400; letter-spacing: normal; orphans: 2; text-align: left; text-indent: 0px; text-transform: none; widows: 2; word-spacing: 0px; -webkit-text-stroke-width: 0px; white-space: normal; background-color: initial; text-decoration-thickness: initial; text-decoration-style: initial; text-decoration-color: initial; color: rgb(66, 93, 192);&quot;&gt;t1&lt;/span&gt;&lt;span style=&quot;forced-color-adjust: none; font-family: &amp;quot;Courier New&amp;quot;; font-size: 13px; font-style: normal; font-variant-ligatures: normal; font-variant-caps: normal; font-weight: 400; letter-spacing: normal; orphans: 2; text-align: left; text-indent: 0px; text-transform: none; widows: 2; word-spacing: 0px; -webkit-text-stroke-width: 0px; white-space: normal; background-color: initial; text-decoration-thickness: initial; text-decoration-style: initial; text-decoration-color: initial; color: rgb(51, 51, 51);&quot;&gt;.&lt;/span&gt;&lt;font style=&quot;forced-color-adjust: none; font-family: &amp;quot;Courier New&amp;quot;; font-size: 13px; font-style: normal; font-variant-ligatures: normal; font-variant-caps: normal; font-weight: 400; letter-spacing: normal; orphans: 2; text-align: left; text-indent: 0px; text-transform: none; widows: 2; word-spacing: 0px; -webkit-text-stroke-width: 0px; white-space: normal; background-color: initial; text-decoration-thickness: initial; text-decoration-style: initial; text-decoration-color: initial;&quot; color=&quot;#425dc0&quot;&gt;id&lt;/font&gt;" style="text;html=1;align=center;verticalAlign=middle;whiteSpace=wrap;rounded=0;" vertex="1" parent="1">
          <mxGeometry x="590" y="187" width="60" height="30" as="geometry" />
        </mxCell>
        <mxCell id="Gkvv0AvtTm0t5nRtkiNN-3" value="&lt;span style=&quot;forced-color-adjust: none; font-family: &amp;quot;Courier New&amp;quot;; font-size: 13px; font-style: normal; font-variant-ligatures: normal; font-variant-caps: normal; font-weight: 400; letter-spacing: normal; orphans: 2; text-align: left; text-indent: 0px; text-transform: none; widows: 2; word-spacing: 0px; -webkit-text-stroke-width: 0px; white-space: normal; background-color: initial; text-decoration-thickness: initial; text-decoration-style: initial; text-decoration-color: initial; color: rgb(66, 93, 192);&quot;&gt;t2&lt;/span&gt;&lt;span style=&quot;forced-color-adjust: none; font-family: &amp;quot;Courier New&amp;quot;; font-size: 13px; font-style: normal; font-variant-ligatures: normal; font-variant-caps: normal; font-weight: 400; letter-spacing: normal; orphans: 2; text-align: left; text-indent: 0px; text-transform: none; widows: 2; word-spacing: 0px; -webkit-text-stroke-width: 0px; white-space: normal; background-color: initial; text-decoration-thickness: initial; text-decoration-style: initial; text-decoration-color: initial; color: rgb(51, 51, 51);&quot;&gt;.&lt;/span&gt;&lt;font style=&quot;forced-color-adjust: none; font-family: &amp;quot;Courier New&amp;quot;; font-size: 13px; font-style: normal; font-variant-ligatures: normal; font-variant-caps: normal; font-weight: 400; letter-spacing: normal; orphans: 2; text-align: left; text-indent: 0px; text-transform: none; widows: 2; word-spacing: 0px; -webkit-text-stroke-width: 0px; white-space: normal; background-color: initial; text-decoration-thickness: initial; text-decoration-style: initial; text-decoration-color: initial;&quot; color=&quot;#425dc0&quot;&gt;id&lt;/font&gt;" style="text;html=1;align=center;verticalAlign=middle;whiteSpace=wrap;rounded=0;" vertex="1" parent="1">
          <mxGeometry x="590" y="211" width="60" height="30" as="geometry" />
        </mxCell>
        <mxCell id="Gkvv0AvtTm0t5nRtkiNN-4" value="" style="shape=curlyBracket;whiteSpace=wrap;html=1;rounded=1;flipH=1;labelPosition=right;verticalLabelPosition=middle;align=left;verticalAlign=middle;" vertex="1" parent="1">
          <mxGeometry x="660" y="183" width="20" height="64" as="geometry" />
        </mxCell>
        <mxCell id="Gkvv0AvtTm0t5nRtkiNN-5" value="" style="shape=curlyBracket;whiteSpace=wrap;html=1;rounded=1;labelPosition=left;verticalLabelPosition=middle;align=right;verticalAlign=middle;" vertex="1" parent="1">
          <mxGeometry x="560" y="267" width="21.88" height="70" as="geometry" />
        </mxCell>
        <mxCell id="Gkvv0AvtTm0t5nRtkiNN-6" value="&lt;span style=&quot;forced-color-adjust: none; font-family: &amp;quot;Courier New&amp;quot;; font-size: 13px; font-style: normal; font-variant-ligatures: normal; font-variant-caps: normal; font-weight: 400; letter-spacing: normal; orphans: 2; text-align: left; text-indent: 0px; text-transform: none; widows: 2; word-spacing: 0px; -webkit-text-stroke-width: 0px; white-space: normal; background-color: initial; text-decoration-thickness: initial; text-decoration-style: initial; text-decoration-color: initial; color: rgb(66, 93, 192);&quot;&gt;t1&lt;/span&gt;&lt;span style=&quot;forced-color-adjust: none; font-family: &amp;quot;Courier New&amp;quot;; font-size: 13px; font-style: normal; font-variant-ligatures: normal; font-variant-caps: normal; font-weight: 400; letter-spacing: normal; orphans: 2; text-align: left; text-indent: 0px; text-transform: none; widows: 2; word-spacing: 0px; -webkit-text-stroke-width: 0px; white-space: normal; background-color: initial; text-decoration-thickness: initial; text-decoration-style: initial; text-decoration-color: initial; color: rgb(51, 51, 51);&quot;&gt;.&lt;/span&gt;&lt;font style=&quot;forced-color-adjust: none; font-family: &amp;quot;Courier New&amp;quot;; font-size: 13px; font-style: normal; font-variant-ligatures: normal; font-variant-caps: normal; font-weight: 400; letter-spacing: normal; orphans: 2; text-align: left; text-indent: 0px; text-transform: none; widows: 2; word-spacing: 0px; -webkit-text-stroke-width: 0px; white-space: normal; background-color: initial; text-decoration-thickness: initial; text-decoration-style: initial; text-decoration-color: initial;&quot; color=&quot;#425dc0&quot;&gt;value&lt;/font&gt;" style="text;html=1;align=center;verticalAlign=middle;whiteSpace=wrap;rounded=0;" vertex="1" parent="1">
          <mxGeometry x="580" y="263" width="80" height="30" as="geometry" />
        </mxCell>
        <mxCell id="Gkvv0AvtTm0t5nRtkiNN-7" value="&lt;span style=&quot;forced-color-adjust: none; font-family: &amp;quot;Courier New&amp;quot;; font-size: 13px; font-style: normal; font-variant-ligatures: normal; font-variant-caps: normal; font-weight: 400; letter-spacing: normal; orphans: 2; text-align: left; text-indent: 0px; text-transform: none; widows: 2; word-spacing: 0px; -webkit-text-stroke-width: 0px; white-space: normal; background-color: initial; text-decoration-thickness: initial; text-decoration-style: initial; text-decoration-color: initial; color: rgb(66, 93, 192);&quot;&gt;t2&lt;/span&gt;&lt;span style=&quot;forced-color-adjust: none; font-family: &amp;quot;Courier New&amp;quot;; font-size: 13px; font-style: normal; font-variant-ligatures: normal; font-variant-caps: normal; font-weight: 400; letter-spacing: normal; orphans: 2; text-align: left; text-indent: 0px; text-transform: none; widows: 2; word-spacing: 0px; -webkit-text-stroke-width: 0px; white-space: normal; background-color: initial; text-decoration-thickness: initial; text-decoration-style: initial; text-decoration-color: initial; color: rgb(51, 51, 51);&quot;&gt;.&lt;/span&gt;&lt;span style=&quot;forced-color-adjust: none; font-family: &amp;quot;Courier New&amp;quot;; font-size: 13px; font-style: normal; font-variant-ligatures: normal; font-variant-caps: normal; font-weight: 400; letter-spacing: normal; orphans: 2; text-align: left; text-indent: 0px; text-transform: none; widows: 2; word-spacing: 0px; -webkit-text-stroke-width: 0px; white-space: normal; background-color: initial; text-decoration-thickness: initial; text-decoration-style: initial; text-decoration-color: initial;&quot;&gt;&lt;font color=&quot;#425dc0&quot;&gt;value&lt;/font&gt;&lt;/span&gt;" style="text;html=1;align=center;verticalAlign=middle;whiteSpace=wrap;rounded=0;" vertex="1" parent="1">
          <mxGeometry x="580" y="288" width="80" height="30" as="geometry" />
        </mxCell>
        <mxCell id="Gkvv0AvtTm0t5nRtkiNN-8" value="" style="shape=curlyBracket;whiteSpace=wrap;html=1;rounded=1;flipH=1;labelPosition=right;verticalLabelPosition=middle;align=left;verticalAlign=middle;" vertex="1" parent="1">
          <mxGeometry x="660" y="267" width="20" height="70" as="geometry" />
        </mxCell>
        <mxCell id="Gkvv0AvtTm0t5nRtkiNN-10" value="EquivalenceClass" style="text;html=1;align=center;verticalAlign=middle;whiteSpace=wrap;rounded=0;fontSize=14;fontStyle=1;fontColor=#313131;" vertex="1" parent="1">
          <mxGeometry x="540" y="350" width="160" height="20" as="geometry" />
        </mxCell>
        <mxCell id="Gkvv0AvtTm0t5nRtkiNN-12" value="" style="endArrow=blockThin;html=1;rounded=0;endFill=1;" edge="1" parent="1">
          <mxGeometry width="50" height="50" relative="1" as="geometry">
            <mxPoint x="490" y="224" as="sourcePoint" />
            <mxPoint x="550" y="215" as="targetPoint" />
          </mxGeometry>
        </mxCell>
        <mxCell id="Gkvv0AvtTm0t5nRtkiNN-14" value="" style="endArrow=blockThin;html=1;rounded=0;endFill=1;" edge="1" parent="1">
          <mxGeometry width="50" height="50" relative="1" as="geometry">
            <mxPoint x="490" y="293" as="sourcePoint" />
            <mxPoint x="550" y="300" as="targetPoint" />
          </mxGeometry>
        </mxCell>
        <mxCell id="Gkvv0AvtTm0t5nRtkiNN-15" value="&lt;font color=&quot;#b36844&quot;&gt;0&lt;/font&gt;" style="text;html=1;align=center;verticalAlign=middle;whiteSpace=wrap;rounded=0;" vertex="1" parent="1">
          <mxGeometry x="580" y="307" width="80" height="30" as="geometry" />
        </mxCell>
      </root>
    </mxGraphModel>
  </diagram>
</mxfile>
